<?xml version="1.0" encoding="utf-8"?>
<!-- Generator: Adobe Illustrator 28.2.0, SVG Export Plug-In . SVG Version: 6.00 Build 0)  -->
<svg version="1.1" id="Layer_1" xmlns="http://www.w3.org/2000/svg" xmlns:xlink="http://www.w3.org/1999/xlink" x="0px" y="0px"
	 viewBox="0 0 212 65" style="enable-background:new 0 0 212 65;" xml:space="preserve">
<style type="text/css">
	.st0{fill:#1B3E78;}
	.st1{fill:#1F548F;}
	.st2{fill:none;}
</style>
<g>
	<g>
		<g>
			<g>
				<g>
					<g>
						<g>
							<path class="st0" d="M36,28h4c0,4.5-3.6,8.1-8,8.1H19.7c-4.5,0-8-3.6-8-8.1V7.7h20.2c4.5,0,8,3.6,8,8.1h-4
								c0-2.2-1.8-4.1-4.1-4.1H15.6V28c0,2.3,1.9,4.1,4.1,4.1h12.2C34.2,32.1,36,30.2,36,28z"/>
							<path class="st0" d="M52.8,32.1V7.8h-4v28.3h17.2v-4H52.8z"/>
							<g>
								<path class="st0" d="M78.8,15.7v4.1h20.4v4.1H78.8V28c0.1,2.2,1.9,4,4.1,4h20.2v4H82.8c-4.4,0-7.9-3.4-8.1-7.8V15.5
									c0.1-4.3,3.7-7.8,8.1-7.8h20.2v4H82.8C80.6,11.7,78.8,13.5,78.8,15.7z"/>
							</g>
							<path class="st0" d="M178.2,7.7v21.5L156.6,7.7h-2.8V36h4V14.5L179.4,36h2.8V7.7H178.2z"/>
							<path class="st0" d="M129.6,7.7h-2.4L113,36h4.4l3.9-7.8h14.1l1.9,3.8h0l2,4h4.4L129.6,7.7z M123.3,24.3l5.1-10.1v0l0-0.1
								l5.1,10.2L123.3,24.3L123.3,24.3z"/>
						</g>
					</g>
				</g>
			</g>
			<g>
				<g>
					<g>
						<g>
							<path class="st1" d="M11.7,55.1V40.7h3c2.2,0,3.7,0.2,4.7,0.5c1.4,0.5,2.5,1.3,3.3,2.5c0.8,1.2,1.2,2.7,1.2,4.3
								c0,1.4-0.3,2.7-0.9,3.8s-1.4,1.9-2.4,2.4c-1,0.5-2.4,0.8-4.2,0.8L11.7,55.1L11.7,55.1z M13,53.8h1.7c2,0,3.4-0.1,4.1-0.4
								c1.1-0.3,1.9-1,2.6-1.9c0.6-0.9,0.9-2,0.9-3.4c0-1.4-0.3-2.6-1-3.6c-0.7-1-1.6-1.7-2.8-2c-0.9-0.3-2.4-0.4-4.5-0.4h-1
								L13,53.8L13,53.8z"/>
						</g>
					</g>
					<g>
						<g>
							<path class="st1" d="M37,44.5v10.7h-1.3v-1.8c-0.6,0.7-1.2,1.2-1.9,1.6c-0.7,0.3-1.5,0.5-2.3,0.5c-1.5,0-2.8-0.5-3.9-1.6
								c-1.1-1.1-1.6-2.4-1.6-4c0-1.5,0.5-2.8,1.6-3.9c1.1-1.1,2.4-1.6,3.9-1.6c0.9,0,1.7,0.2,2.4,0.6c0.7,0.4,1.3,0.9,1.9,1.7v-2
								L37,44.5L37,44.5z M31.5,45.5c-0.8,0-1.5,0.2-2.1,0.6s-1.2,0.9-1.5,1.6c-0.4,0.7-0.6,1.4-0.6,2.2c0,0.7,0.2,1.5,0.6,2.2
								c0.4,0.7,0.9,1.2,1.6,1.6c0.7,0.4,1.3,0.6,2.1,0.6c0.7,0,1.5-0.2,2.1-0.6s1.2-0.9,1.6-1.5c0.4-0.6,0.5-1.4,0.5-2.2
								c0-1.2-0.4-2.3-1.2-3.1C33.7,45.9,32.7,45.5,31.5,45.5z"/>
						</g>
					</g>
					<g>
						<g>
							<path class="st1" d="M41.2,40.5h1.4v4h2.2v1.2h-2.2v9.5h-1.4v-9.5h-1.9v-1.2h1.9C41.2,44.5,41.2,40.5,41.2,40.5z"/>
						</g>
					</g>
					<g>
						<g>
							<path class="st1" d="M57.5,44.5v10.7h-1.3v-1.8c-0.6,0.7-1.2,1.2-1.9,1.6c-0.7,0.3-1.5,0.5-2.3,0.5c-1.5,0-2.8-0.5-3.9-1.6
								c-1.1-1.1-1.6-2.4-1.6-4c0-1.5,0.5-2.8,1.6-3.9c1.1-1.1,2.4-1.6,3.9-1.6c0.9,0,1.7,0.2,2.4,0.6c0.7,0.4,1.3,0.9,1.9,1.7v-2
								L57.5,44.5L57.5,44.5z M52,45.5c-0.8,0-1.5,0.2-2.1,0.6c-0.6,0.4-1.2,0.9-1.5,1.6c-0.4,0.7-0.6,1.4-0.6,2.2
								c0,0.7,0.2,1.5,0.6,2.2c0.4,0.7,0.9,1.2,1.6,1.6s1.3,0.6,2.1,0.6c0.7,0,1.5-0.2,2.1-0.6s1.2-0.9,1.6-1.5
								c0.4-0.6,0.5-1.4,0.5-2.2c0-1.2-0.4-2.3-1.2-3.1C54.2,45.9,53.2,45.5,52,45.5z"/>
						</g>
					</g>
					<g>
						<g>
							<path class="st1" d="M64.8,52.4l1.2-0.7c0.9,1.6,1.9,2.4,3,2.4c0.5,0,0.9-0.1,1.4-0.3c0.4-0.2,0.7-0.5,1-0.9
								c0.2-0.4,0.3-0.8,0.3-1.2c0-0.5-0.2-1-0.5-1.4c-0.4-0.6-1.3-1.4-2.5-2.3c-1.2-0.9-1.9-1.6-2.2-2c-0.5-0.7-0.8-1.4-0.8-2.2
								c0-0.6,0.2-1.2,0.4-1.7c0.3-0.5,0.7-0.9,1.3-1.2c0.5-0.3,1.1-0.4,1.8-0.4c0.7,0,1.3,0.2,1.9,0.5s1.2,1,1.9,1.9l-1.2,0.9
								c-0.5-0.7-1-1.2-1.4-1.4c-0.4-0.2-0.8-0.3-1.2-0.3c-0.6,0-1.1,0.2-1.4,0.5c-0.4,0.3-0.6,0.8-0.6,1.3c0,0.3,0.1,0.6,0.2,0.9
								c0.1,0.3,0.4,0.6,0.7,1c0.2,0.2,0.8,0.7,1.9,1.4c1.2,0.9,2.1,1.7,2.6,2.5c0.5,0.7,0.7,1.4,0.7,2.2c0,1-0.4,2-1.2,2.7
								c-0.8,0.8-1.8,1.2-2.9,1.2c-0.9,0-1.7-0.2-2.4-0.7C66.1,54.3,65.4,53.5,64.8,52.4z"/>
						</g>
					</g>
					<g>
						<g>
							<path class="st1" d="M85.1,51.6l1.2,0.6c-0.4,0.7-0.8,1.3-1.3,1.8s-1.1,0.8-1.7,1c-0.6,0.2-1.3,0.4-2.1,0.4
								c-1.7,0-3.1-0.6-4.1-1.7c-1-1.1-1.5-2.4-1.5-3.9c0-1.3,0.4-2.6,1.2-3.6c1.1-1.3,2.5-2,4.2-2c1.8,0,3.3,0.7,4.3,2.1
								c0.8,1,1.2,2.2,1.2,3.6H77c0,1.2,0.4,2.2,1.2,3c0.8,0.8,1.7,1.2,2.8,1.2c0.5,0,1.1-0.1,1.6-0.3c0.5-0.2,0.9-0.4,1.3-0.7
								C84.2,52.8,84.6,52.3,85.1,51.6z M85.1,48.7c-0.2-0.7-0.4-1.3-0.8-1.7c-0.3-0.4-0.8-0.8-1.4-1.1c-0.6-0.3-1.2-0.4-1.8-0.4
								c-1,0-1.9,0.3-2.7,1c-0.6,0.5-1,1.2-1.2,2.2L85.1,48.7L85.1,48.7z"/>
						</g>
					</g>
					<g>
						<g>
							<path class="st1" d="M88.6,44.5H90V46c0.4-0.6,0.9-1.1,1.3-1.4c0.5-0.3,0.9-0.5,1.4-0.5c0.4,0,0.8,0.1,1.2,0.4l-0.7,1.2
								c-0.3-0.1-0.5-0.2-0.7-0.2c-0.5,0-0.9,0.2-1.3,0.6s-0.7,1-1,1.7c-0.2,0.6-0.2,1.8-0.2,3.7v3.6h-1.4V44.5z"/>
						</g>
					</g>
					<g>
						<g>
							<path class="st1" d="M94.1,44.5h1.5l3.6,7.8l3.5-7.8h1.5l-4.9,10.7H99L94.1,44.5z"/>
						</g>
					</g>
					<g>
						<g>
							<path class="st1" d="M106.7,40.1c0.3,0,0.6,0.1,0.8,0.3c0.2,0.2,0.3,0.5,0.3,0.8c0,0.3-0.1,0.6-0.3,0.8
								c-0.2,0.2-0.5,0.3-0.8,0.3c-0.3,0-0.6-0.1-0.8-0.3c-0.2-0.2-0.3-0.5-0.3-0.8c0-0.3,0.1-0.6,0.3-0.8
								C106.2,40.2,106.4,40.1,106.7,40.1z M106.1,44.5h1.4v10.7h-1.4V44.5z"/>
						</g>
					</g>
					<g>
						<g>
							<path class="st1" d="M120.6,46.7l-1.1,0.7c-0.9-1.2-2.2-1.9-3.8-1.9c-1.3,0-2.4,0.4-3.2,1.2c-0.9,0.8-1.3,1.8-1.3,3
								c0,0.8,0.2,1.5,0.6,2.2c0.4,0.7,0.9,1.2,1.6,1.6c0.7,0.4,1.5,0.6,2.3,0.6c1.6,0,2.8-0.6,3.8-1.9l1.1,0.7
								c-0.5,0.8-1.2,1.4-2.1,1.8c-0.9,0.4-1.8,0.6-2.9,0.6c-1.7,0-3.1-0.5-4.2-1.6c-1.1-1.1-1.7-2.4-1.7-3.9c0-1,0.3-2,0.8-2.9
								s1.2-1.6,2.1-2.1c0.9-0.5,1.9-0.7,3-0.7c0.7,0,1.4,0.1,2,0.3c0.7,0.2,1.2,0.5,1.7,0.8C119.9,45.7,120.3,46.1,120.6,46.7z"/>
						</g>
					</g>
					<g>
						<g>
							<path class="st1" d="M132.2,51.6l1.2,0.6c-0.4,0.7-0.8,1.3-1.3,1.8c-0.5,0.5-1.1,0.8-1.7,1c-0.6,0.2-1.3,0.4-2.1,0.4
								c-1.7,0-3.1-0.6-4.1-1.7c-1-1.1-1.5-2.4-1.5-3.9c0-1.3,0.4-2.6,1.2-3.6c1.1-1.3,2.5-2,4.2-2c1.8,0,3.3,0.7,4.3,2.1
								c0.8,1,1.2,2.2,1.2,3.6h-9.6c0,1.2,0.4,2.2,1.2,3c0.8,0.8,1.7,1.2,2.8,1.2c0.5,0,1.1-0.1,1.6-0.3c0.5-0.2,0.9-0.4,1.3-0.7
								C131.4,52.8,131.8,52.3,132.2,51.6z M132.2,48.7c-0.2-0.7-0.4-1.3-0.8-1.7c-0.3-0.4-0.8-0.8-1.4-1.1
								c-0.6-0.3-1.2-0.4-1.8-0.4c-1,0-1.9,0.3-2.7,1c-0.6,0.5-1,1.2-1.2,2.2L132.2,48.7L132.2,48.7z"/>
						</g>
					</g>
					<g>
						<g>
							<path class="st1" d="M141.6,45.6l-0.9,0.9c-0.7-0.7-1.4-1.1-2.2-1.1c-0.4,0-0.8,0.2-1.1,0.4c-0.3,0.3-0.5,0.6-0.5,1
								c0,0.3,0.1,0.7,0.4,1c0.3,0.3,0.8,0.7,1.7,1.1c1,0.5,1.7,1,2.1,1.5c0.4,0.5,0.5,1.1,0.5,1.7c0,0.9-0.3,1.6-0.9,2.2
								c-0.6,0.6-1.4,0.9-2.3,0.9c-0.6,0-1.2-0.1-1.8-0.4c-0.6-0.3-1-0.6-1.4-1.1l0.9-1c0.7,0.8,1.4,1.2,2.2,1.2
								c0.6,0,1-0.2,1.4-0.5c0.4-0.3,0.6-0.8,0.6-1.2c0-0.4-0.1-0.7-0.4-1c-0.2-0.3-0.8-0.7-1.7-1.1c-1-0.5-1.6-1-2-1.5
								c-0.3-0.5-0.5-1-0.5-1.7c0-0.8,0.3-1.5,0.8-2c0.6-0.5,1.2-0.8,2.1-0.8C139.7,44.2,140.7,44.7,141.6,45.6z"/>
						</g>
					</g>
					<g>
						<g>
							<path class="st1" d="M149.8,40.7h2.9c1.6,0,2.8,0.1,3.3,0.2c0.8,0.2,1.5,0.6,2,1.2c0.5,0.6,0.8,1.4,0.8,2.4
								c0,1-0.2,1.7-0.8,2.4c-0.5,0.6-1.2,1-2.1,1.3c-0.7,0.2-1.9,0.2-3.7,0.2h-1v6.7h-1.4L149.8,40.7L149.8,40.7z M151.3,42.1V47
								l2.4,0c1,0,1.7-0.1,2.2-0.3c0.5-0.2,0.8-0.5,1.1-0.9c0.3-0.4,0.4-0.8,0.4-1.3c0-0.5-0.1-0.9-0.4-1.3s-0.6-0.7-1-0.9
								s-1.1-0.2-2.1-0.2L151.3,42.1L151.3,42.1z"/>
						</g>
					</g>
					<g>
						<g>
							<path class="st1" d="M161.7,40.7h1.4v13h5.5v1.4h-7L161.7,40.7L161.7,40.7z"/>
						</g>
					</g>
					<g>
						<g>
							<path class="st1" d="M184.4,43.4l-1.1,0.9c-0.6-0.8-1.4-1.4-2.3-1.9c-0.9-0.4-1.8-0.6-2.9-0.6c-1.2,0-2.2,0.3-3.2,0.8
								c-1,0.6-1.7,1.3-2.3,2.2c-0.5,0.9-0.8,2-0.8,3.1c0,1.8,0.6,3.2,1.8,4.4c1.2,1.2,2.7,1.8,4.6,1.8c2,0,3.7-0.8,5.1-2.4l1.1,0.9
								c-0.7,0.9-1.6,1.6-2.7,2.1c-1.1,0.5-2.3,0.7-3.6,0.7c-2.5,0-4.5-0.8-6-2.5c-1.2-1.4-1.8-3.1-1.8-5.1c0-2.1,0.7-3.9,2.2-5.3
								c1.5-1.4,3.3-2.2,5.6-2.2c1.3,0,2.6,0.3,3.6,0.8C182.8,41.7,183.7,42.4,184.4,43.4z"/>
						</g>
					</g>
				</g>
			</g>
			<line class="st2" x1="128.8" y1="13.3" x2="128.4" y2="14.1"/>
			<line class="st2" x1="128.4" y1="14.2" x2="127.7" y2="12.8"/>
			<line class="st2" x1="137.4" y1="32.1" x2="128.4" y2="14.2"/>
		</g>
	</g>
	<g>
		<path class="st0" d="M184.6,6.7c0-0.3,0-0.6,0-0.9c-0.3,0-0.5,0-0.8,0V5.2h2.3v0.5c-0.3,0-0.5,0-0.8,0h-0.3v0
			c0.2,0.1,0.2,0.2,0.2,0.3v0.6c0,0.5,0,1,0,1.5h-0.6C184.6,7.6,184.6,7.2,184.6,6.7z"/>
		<path class="st0" d="M186.5,6.7c0-0.5,0-1,0-1.5h0.8l0.8,2l0,0c0-0.1,0-0.2,0.1-0.4l0.7-1.6h0.8c0,0.5,0,1,0,1.5s0,1,0,1.5h-0.6
			V6.6c0-0.1,0-0.3,0.1-0.5l0,0l-0.8,2h-0.3l-0.8-2l0,0c0,0.2,0.1,0.4,0.1,0.5v1.5h-0.6C186.5,7.6,186.5,7.2,186.5,6.7z"/>
	</g>
</g>
</svg>
