<?xml version="1.0" encoding="UTF-8"?>
<svg id="Layer_1" data-name="Layer 1" xmlns="http://www.w3.org/2000/svg" viewBox="0 0 1060 358">
  <defs>
    <style>
      .cls-1 {
        fill: #1f548f;
      }

      .cls-1, .cls-2, .cls-3 {
        stroke-width: 0px;
      }

      .cls-2 {
        fill: none;
      }

      .cls-3 {
        fill: #1b3e78;
      }
    </style>
  </defs>
  <g>
    <g>
      <path class="cls-3" d="M143.44,159.17h22.44c0,27.29-20.4,48.96-45.61,48.96H51.11c-25.39,0-45.61-21.87-45.61-48.96V36.08h114.83c25.39,0,45.61,21.87,45.61,48.96h-22.44c0-13.61-10.23-24.84-23.18-24.84H27.87v98.98c0,13.94,10.54,24.84,23.18,24.84h69.16c12.88.07,23.24-11.03,23.24-24.84Z"/>
      <path class="cls-3" d="M238.55,184.22V36.28h-22.5v172.05h97.33v-24.12h-74.83Z"/>
      <path class="cls-3" d="M385.98,84.58v24.84h115.88v24.71h-115.88v24.98c.31,13.61,10.66,24.38,23.18,24.38h114.83v24.05h-114.83c-24.96,0-44.93-20.95-45.67-47.37v-76.71c.74-26.43,20.71-47.37,45.67-47.37h114.83v24.12h-114.83c-12.51,0-22.87,10.77-23.18,24.38Z"/>
      <path class="cls-3" d="M949.9,36.15v130.96l-122.23-130.96h-15.78v171.99h22.44V77.18l122.23,130.96h15.78V36.15h-22.44Z"/>
      <path class="cls-3" d="M674.5,36.08h-13.75l-80.25,172.05h24.84l22.19-47.37h80.19l10.79,23.26h-.06l11.28,24.12h25.02l-80.25-172.05ZM638.76,136.71l28.78-61.45v-.07l.18-.33,28.78,61.78h-57.75v.07Z"/>
    </g>
    <g>
      <path class="cls-1" d="M5.43,324.29v-87.61h16.95c12.2,0,21.08,1.06,26.63,3.17,7.95,2.97,14.11,8.13,18.55,15.46,4.44,7.33,6.72,16.12,6.72,26.23,0,8.79-1.79,16.52-5.3,23.19-3.51,6.67-8.14,11.56-13.75,14.73-5.67,3.17-13.56,4.76-23.73,4.76H5.43v.07ZM13.26,315.97h9.43c11.28,0,19.11-.73,23.48-2.25,6.16-2.11,10.97-6.01,14.48-11.56s5.3-12.36,5.3-20.42c0-8.46-1.91-15.66-5.73-21.67s-9.12-10.11-15.96-12.29c-5.12-1.65-13.56-2.51-25.27-2.51h-5.79v70.7h.06Z"/>
      <path class="cls-1" d="M148.99,259.47v64.75h-7.64v-11.1c-3.27,4.23-6.9,7.47-10.97,9.58-4.07,2.11-8.51,3.24-13.31,3.24-8.57,0-15.84-3.3-21.88-9.98-6.04-6.67-9.06-14.73-9.06-24.25s3.08-17.31,9.18-23.92,13.44-9.91,22.07-9.91c4.93,0,9.43,1.12,13.44,3.37,4.01,2.25,7.52,5.68,10.6,10.18v-11.89h7.58v-.07ZM117.92,265.88c-4.31,0-8.32,1.12-11.96,3.44-3.64,2.31-6.6,5.48-8.75,9.58-2.16,4.1-3.27,8.46-3.27,13.08s1.11,8.92,3.27,13.08c2.16,4.16,5.12,7.4,8.81,9.71,3.7,2.31,7.64,3.5,11.83,3.5s8.26-1.12,12.08-3.44c3.82-2.31,6.72-5.42,8.81-9.32,2.03-3.9,3.08-8.33,3.08-13.28,0-7.47-2.28-13.74-6.9-18.76-4.62-5.09-10.29-7.6-17.01-7.6Z"/>
      <path class="cls-1" d="M173.27,235.42h7.77v24.05h12.33v7.2h-12.33v57.55h-7.77v-57.55h-10.6v-7.2h10.6s0-24.05,0-24.05Z"/>
      <path class="cls-1" d="M265.23,259.47v64.75h-7.64v-11.1c-3.27,4.23-6.9,7.47-10.97,9.58-4.07,2.11-8.51,3.24-13.31,3.24-8.57,0-15.84-3.3-21.88-9.98-6.04-6.67-9.06-14.73-9.06-24.25s3.08-17.31,9.18-23.92c6.1-6.61,13.44-9.91,22.07-9.91,4.93,0,9.43,1.12,13.44,3.37,4.01,2.25,7.52,5.68,10.6,10.18v-11.89h7.58v-.07ZM234.17,265.88c-4.31,0-8.32,1.12-11.96,3.44-3.64,2.31-6.6,5.48-8.75,9.58-2.16,4.1-3.27,8.46-3.27,13.08s1.11,8.92,3.27,13.08c2.16,4.16,5.12,7.4,8.81,9.71,3.7,2.31,7.64,3.5,11.83,3.5s8.26-1.12,12.08-3.44c3.82-2.31,6.72-5.42,8.81-9.32,2.03-3.9,3.08-8.33,3.08-13.28,0-7.47-2.28-13.74-6.9-18.76-4.62-5.09-10.29-7.6-17.01-7.6Z"/>
      <path class="cls-1" d="M307.02,307.97l6.96-4.49c4.87,9.65,10.54,14.47,16.95,14.47,2.71,0,5.3-.66,7.7-2.05,2.4-1.39,4.25-3.24,5.49-5.48,1.23-2.31,1.91-4.76,1.91-7.33,0-2.91-.92-5.81-2.77-8.66-2.53-3.9-7.21-8.59-13.99-14.07-6.84-5.48-11.03-9.51-12.7-11.96-2.9-4.1-4.31-8.59-4.31-13.41,0-3.83.86-7.27,2.53-10.44,1.73-3.11,4.07-5.62,7.21-7.4,3.08-1.78,6.47-2.71,10.11-2.71,3.82,0,7.46.99,10.79,3.04,3.33,2.05,6.9,5.81,10.66,11.3l-6.66,5.42c-3.08-4.36-5.67-7.27-7.89-8.66-2.16-1.39-4.5-2.11-7.09-2.11-3.27,0-5.98,1.06-8.07,3.24-2.1,2.11-3.14,4.76-3.14,7.93,0,1.92.37,3.77,1.11,5.55.74,1.78,2.1,3.7,4.07,5.81,1.05,1.12,4.56,4.03,10.54,8.72,7.09,5.62,11.9,10.57,14.55,14.93,2.65,4.36,3.94,8.72,3.94,13.15,0,6.34-2.28,11.89-6.78,16.52-4.5,4.69-9.99,7-16.4,7-4.93,0-9.43-1.39-13.5-4.23-4.07-2.64-7.77-7.4-11.22-14.07Z"/>
      <path class="cls-1" d="M421.73,302.75l6.53,3.7c-2.16,4.49-4.62,8.19-7.46,10.97-2.84,2.78-5.98,4.89-9.49,6.34s-7.52,2.18-11.96,2.18c-9.86,0-17.57-3.44-23.11-10.37-5.55-6.94-8.32-14.73-8.32-23.46,0-8.19,2.34-15.53,7.03-21.94,5.98-8.19,13.93-12.29,23.98-12.29s18.55,4.16,24.65,12.55c4.38,5.95,6.6,13.28,6.66,22.13h-54.36c.12,7.53,2.4,13.68,6.72,18.5,4.31,4.82,9.68,7.2,16.09,7.2,3.08,0,6.04-.59,9-1.72,2.96-1.12,5.36-2.64,7.4-4.56,2.1-1.92,4.31-5.02,6.66-9.25ZM421.73,285.31c-1.05-4.43-2.53-7.99-4.56-10.64-1.97-2.64-4.62-4.82-7.89-6.41-3.27-1.65-6.72-2.44-10.29-2.44-5.92,0-11.03,2.05-15.29,6.14-3.14,2.97-5.49,7.47-7.09,13.41h45.12v-.07Z"/>
      <path class="cls-1" d="M441.82,259.47h7.95v9.45c2.34-3.7,4.87-6.54,7.52-8.39s5.36-2.78,8.2-2.78c2.16,0,4.44.73,6.9,2.18l-4.07,7c-1.66-.73-3.02-1.12-4.13-1.12-2.59,0-5.12,1.12-7.52,3.44s-4.25,5.81-5.49,10.64c-.99,3.7-1.42,11.17-1.42,22.4v21.94h-7.95v-64.75Z"/>
      <path class="cls-1" d="M473.26,259.47h8.26l20.28,47.24,20.03-47.24h8.32l-27.68,64.75h-1.42l-27.8-64.75Z"/>
      <path class="cls-1" d="M544.7,232.85c1.79,0,3.27.66,4.56,2.05,1.23,1.32,1.85,2.97,1.85,4.89s-.62,3.5-1.85,4.82c-1.23,1.32-2.77,2.05-4.56,2.05s-3.21-.66-4.5-2.05c-1.23-1.32-1.85-2.97-1.85-4.82s.62-3.5,1.85-4.89c1.29-1.39,2.77-2.05,4.5-2.05ZM540.88,259.47h7.77v64.75h-7.77v-64.75Z"/>
      <path class="cls-1" d="M623.47,272.95l-6.16,4.1c-5.3-7.6-12.57-11.36-21.82-11.36-7.33,0-13.5,2.51-18.31,7.6-4.87,5.09-7.27,11.23-7.27,18.5,0,4.69,1.11,9.18,3.33,13.35s5.3,7.4,9.18,9.71c3.88,2.31,8.26,3.44,13.13,3.44,8.88,0,16.15-3.77,21.76-11.36l6.16,4.36c-2.9,4.69-6.78,8.26-11.65,10.84-4.87,2.58-10.42,3.83-16.64,3.83-9.55,0-17.44-3.24-23.79-9.78-6.29-6.54-9.43-14.4-9.43-23.79,0-6.28,1.48-12.09,4.44-17.44,2.96-5.35,6.96-9.58,12.14-12.62,5.12-3.04,10.91-4.49,17.26-4.49,4.01,0,7.89.66,11.59,1.98,3.7,1.32,6.9,3.04,9.49,5.09,2.53,2.11,4.75,4.82,6.6,8.06Z"/>
      <path class="cls-1" d="M689.24,302.75l6.53,3.7c-2.16,4.49-4.62,8.19-7.46,10.97-2.84,2.78-5.98,4.89-9.49,6.34-3.51,1.45-7.52,2.18-11.96,2.18-9.86,0-17.57-3.44-23.11-10.37-5.55-6.94-8.32-14.73-8.32-23.46,0-8.19,2.34-15.53,7.03-21.94,5.98-8.19,13.93-12.29,23.98-12.29s18.55,4.16,24.65,12.55c4.38,5.95,6.6,13.28,6.66,22.13h-54.36c.12,7.53,2.4,13.68,6.72,18.5s9.68,7.2,16.09,7.2c3.08,0,6.04-.59,9-1.72,2.9-1.12,5.36-2.64,7.4-4.56,2.1-1.92,4.31-5.02,6.66-9.25ZM689.24,285.31c-1.05-4.43-2.53-7.99-4.56-10.64-1.97-2.64-4.62-4.82-7.89-6.41-3.27-1.65-6.72-2.44-10.29-2.44-5.92,0-11.03,2.05-15.29,6.14-3.14,2.97-5.49,7.47-7.09,13.41h45.12v-.07Z"/>
      <path class="cls-1" d="M742.68,266.61l-4.99,5.55c-4.13-4.29-8.2-6.48-12.2-6.48-2.53,0-4.68.93-6.47,2.71-1.79,1.78-2.71,3.9-2.71,6.28,0,2.11.74,4.1,2.22,6.01,1.48,1.92,4.62,4.23,9.37,6.87,5.79,3.24,9.74,6.28,11.77,9.32,2.03,3.04,3.08,6.41,3.08,10.18,0,5.29-1.73,9.84-5.24,13.54-3.51,3.7-7.83,5.55-13.07,5.55-3.51,0-6.84-.79-9.99-2.44-3.14-1.65-5.79-3.9-7.89-6.74l4.87-5.95c3.94,4.82,8.2,7.2,12.64,7.2,3.14,0,5.79-1.06,7.95-3.24,2.22-2.11,3.27-4.69,3.27-7.53,0-2.38-.74-4.49-2.16-6.34-1.42-1.85-4.68-4.1-9.8-6.94-5.49-3.04-9.18-6.01-11.16-8.92-1.97-2.91-2.96-6.28-2.96-10.04,0-4.89,1.54-8.99,4.68-12.29,3.14-3.24,7.09-4.89,11.9-4.89,5.67-.2,11.28,2.71,16.89,8.59Z"/>
      <path class="cls-1" d="M789.15,236.68h16.27c9.31,0,15.66.46,18.86,1.32,4.68,1.26,8.51,3.77,11.46,7.6,2.96,3.83,4.44,8.66,4.44,14.4s-1.42,10.64-4.31,14.4c-2.9,3.77-6.84,6.34-11.96,7.66-3.7.93-10.6,1.45-20.77,1.45h-5.79v40.7h-8.14v-87.55h-.06ZM797.35,245.27v29.73l13.81.2c5.61,0,9.68-.53,12.27-1.65,2.59-1.06,4.62-2.84,6.1-5.29,1.48-2.44,2.22-5.15,2.22-8.19s-.74-5.62-2.22-8.06c-1.48-2.44-3.45-4.16-5.86-5.22-2.4-1.06-6.41-1.52-11.9-1.52h-14.42Z"/>
      <path class="cls-1" d="M856.52,236.68h8.14v79.09h31.43v8.46h-39.57v-87.55h0Z"/>
      <path class="cls-1" d="M985.16,252.93l-6.47,5.29c-3.57-4.96-7.83-8.72-12.82-11.3-4.99-2.58-10.48-3.83-16.4-3.83-6.53,0-12.57,1.65-18.12,5.02-5.55,3.37-9.86,7.86-12.88,13.54-3.08,5.68-4.56,12.03-4.56,19.1,0,10.7,3.39,19.56,10.23,26.76,6.84,7.14,15.47,10.7,25.83,10.7,11.46,0,21.02-4.82,28.72-14.4l6.47,5.22c-4.07,5.55-9.12,9.84-15.22,12.88-6.1,3.04-12.88,4.56-20.4,4.56-14.3,0-25.58-5.09-33.84-15.33-6.9-8.59-10.35-19.03-10.35-31.19,0-12.82,4.19-23.59,12.57-32.38,8.38-8.72,18.86-13.15,31.5-13.15,7.64,0,14.48,1.59,20.65,4.82,6.16,3.3,11.16,7.86,15.1,13.68Z"/>
    </g>
    <line class="cls-2" x1="670.07" y1="69.91" x2="667.72" y2="74.93"/>
    <line class="cls-2" x1="667.54" y1="75.26" x2="663.72" y2="67"/>
    <line class="cls-2" x1="718.45" y1="184.08" x2="667.54" y2="75.26"/>
  </g>
  <g>
    <path class="cls-3" d="M986.08,29.67v-5.62c-1.73,0-3.08,0-4.68-.07v-3.17h12.82v3.17c-1.79.07-2.84.07-4.31.07h-1.66v.07c1.05.33,1.29,1.19,1.29,1.98v3.5c0,2.97,0,5.88-.12,8.85h-3.33c0-2.91,0-5.81,0-8.79Z"/>
    <path class="cls-3" d="M996.87,29.67c0-2.97,0-5.88.06-8.85h4.38l4.5,12.36.12-.13c-.06-.73,0-1.52.31-2.44l3.76-9.78h4.38c.06,2.97.06,5.88.06,8.85s0,5.88-.06,8.85h-3.45v-9.32c0-.79.12-1.59.31-2.91l-.12-.13-4.5,12.36h-1.91l-4.5-12.36-.12.13c.18,1.39.31,2.18.31,2.91v9.38h-3.45c-.06-3.04-.06-5.95-.06-8.92Z"/>
  </g>
</svg>