<?xml version="1.0" encoding="UTF-8"?>
<svg id="Layer_1" data-name="Layer 1" xmlns="http://www.w3.org/2000/svg" viewBox="0 0 177.91 50.27">
  <defs>
    <style>
      .cls-1 {
        fill: #1f548f;
      }

      .cls-1, .cls-2, .cls-3 {
        stroke-width: 0px;
      }

      .cls-2 {
        fill: none;
      }

      .cls-3 {
        fill: #1b3e78;
      }
    </style>
  </defs>
  <g>
    <g>
      <path class="cls-3" d="M24.33,22.76h3.96c0,4.49-3.6,8.05-8.04,8.05h-12.19C3.58,30.81.01,27.21.01,22.76V2.51h20.25c4.48,0,8.04,3.6,8.04,8.05h-3.96c0-2.24-1.8-4.09-4.09-4.09H3.96v16.28c0,2.29,1.86,4.09,4.09,4.09h12.19c2.27.01,4.1-1.81,4.1-4.09Z"/>
      <path class="cls-3" d="M41.1,26.88V2.54h-3.97v28.3h17.16v-3.97h-13.19Z"/>
      <path class="cls-3" d="M67.1,10.49v4.09h20.43v4.06h-20.43v4.11c.05,2.24,1.88,4.01,4.09,4.01h20.25v3.96h-20.25c-4.4,0-7.92-3.45-8.05-7.79v-12.62c.13-4.35,3.65-7.79,8.05-7.79h20.25v3.97h-20.25c-2.21,0-4.03,1.77-4.09,4.01Z"/>
      <path class="cls-3" d="M166.53,2.52v21.54l-21.55-21.54h-2.78v28.29h3.96V9.27l21.55,21.54h2.78V2.52h-3.96Z"/>
      <path class="cls-3" d="M117.97,2.51h-2.42l-14.15,28.3h4.38l3.91-7.79h14.14l1.9,3.83h-.01l1.99,3.97h4.41l-14.15-28.3ZM111.67,19.06l5.08-10.11h0s.03-.07.03-.07l5.08,10.16h-10.18Z"/>
    </g>
    <g>
      <path class="cls-1" d="M0,49.92v-14.41h2.99c2.15,0,3.72.17,4.69.52,1.4.49,2.49,1.34,3.27,2.54.78,1.21,1.18,2.65,1.18,4.31,0,1.45-.32,2.72-.93,3.81s-1.43,1.9-2.42,2.42c-1,.52-2.39.78-4.18.78H0ZM1.38,48.55h1.66c1.99,0,3.37-.12,4.14-.37,1.09-.35,1.93-.99,2.55-1.9s.93-2.03.93-3.36c0-1.39-.34-2.58-1.01-3.56s-1.61-1.66-2.81-2.02c-.9-.27-2.39-.41-4.46-.41h-1.02v11.63h.01Z"/>
      <path class="cls-1" d="M25.31,39.25v10.65h-1.35v-1.83c-.58.7-1.22,1.23-1.93,1.58-.72.35-1.5.53-2.35.53-1.51,0-2.79-.54-3.86-1.64s-1.6-2.42-1.6-3.99.54-2.85,1.62-3.93,2.37-1.63,3.89-1.63c.87,0,1.66.18,2.37.55s1.33.93,1.87,1.67v-1.96h1.34ZM19.83,40.31c-.76,0-1.47.18-2.11.57s-1.16.9-1.54,1.58-.58,1.39-.58,2.15.2,1.47.58,2.15c.38.68.9,1.22,1.55,1.6s1.35.58,2.09.58,1.46-.18,2.13-.57,1.18-.89,1.55-1.53c.36-.64.54-1.37.54-2.18,0-1.23-.4-2.26-1.22-3.09-.82-.84-1.81-1.25-3-1.25Z"/>
      <path class="cls-1" d="M29.59,35.3h1.37v3.96h2.17v1.18h-2.17v9.47h-1.37v-9.47h-1.87v-1.18h1.87s0-3.96,0-3.96Z"/>
      <path class="cls-1" d="M45.81,39.25v10.65h-1.35v-1.83c-.58.7-1.22,1.23-1.93,1.58-.72.35-1.5.53-2.35.53-1.51,0-2.79-.54-3.86-1.64s-1.6-2.42-1.6-3.99.54-2.85,1.62-3.93,2.37-1.63,3.89-1.63c.87,0,1.66.18,2.37.55s1.33.93,1.87,1.67v-1.96h1.34ZM40.33,40.31c-.76,0-1.47.18-2.11.57-.64.38-1.16.9-1.54,1.58s-.58,1.39-.58,2.15.2,1.47.58,2.15c.38.68.9,1.22,1.55,1.6s1.35.58,2.09.58,1.46-.18,2.13-.57,1.18-.89,1.55-1.53c.36-.64.54-1.37.54-2.18,0-1.23-.4-2.26-1.22-3.09-.82-.84-1.81-1.25-3-1.25Z"/>
      <path class="cls-1" d="M53.18,47.23l1.23-.74c.86,1.59,1.86,2.38,2.99,2.38.48,0,.93-.11,1.36-.34.42-.23.75-.53.97-.9.22-.38.34-.78.34-1.21,0-.48-.16-.96-.49-1.42-.45-.64-1.27-1.41-2.47-2.31-1.21-.9-1.95-1.56-2.24-1.97-.51-.67-.76-1.41-.76-2.21,0-.63.15-1.2.45-1.72.3-.51.72-.92,1.27-1.22.54-.29,1.14-.45,1.78-.45.67,0,1.32.16,1.9.5s1.22.96,1.88,1.86l-1.17.89c-.54-.72-1-1.2-1.39-1.42-.38-.23-.79-.35-1.25-.35-.58,0-1.05.17-1.42.53-.37.35-.55.78-.55,1.3,0,.32.07.62.2.91.13.29.37.61.72.96.18.18.8.66,1.86,1.43,1.25.92,2.1,1.74,2.56,2.46.47.72.7,1.43.7,2.16,0,1.04-.4,1.96-1.2,2.72-.79.77-1.76,1.15-2.89,1.15-.87,0-1.66-.23-2.38-.7-.72-.43-1.37-1.22-1.98-2.31Z"/>
      <path class="cls-1" d="M73.4,46.37l1.15.61c-.38.74-.82,1.35-1.32,1.8s-1.05.8-1.67,1.04-1.33.36-2.11.36c-1.74,0-3.1-.57-4.08-1.71s-1.47-2.42-1.47-3.86c0-1.35.41-2.55,1.24-3.61,1.05-1.35,2.46-2.02,4.23-2.02s3.27.68,4.35,2.06c.77.98,1.16,2.18,1.17,3.64h-9.59c.02,1.24.42,2.25,1.18,3.04s1.71,1.18,2.84,1.18c.54,0,1.07-.1,1.59-.28s.95-.43,1.3-.75c.37-.32.76-.83,1.17-1.52ZM73.4,43.5c-.18-.73-.45-1.32-.8-1.75-.35-.43-.82-.79-1.39-1.05-.58-.27-1.18-.4-1.81-.4-1.04,0-1.95.34-2.7,1.01-.55.49-.97,1.23-1.25,2.21h7.96Z"/>
      <path class="cls-1" d="M76.94,39.25h1.4v1.55c.41-.61.86-1.08,1.33-1.38s.95-.46,1.45-.46c.38,0,.78.12,1.22.36l-.72,1.15c-.29-.12-.53-.18-.73-.18-.46,0-.9.18-1.33.57s-.75.96-.97,1.75c-.17.61-.25,1.84-.25,3.68v3.61h-1.4v-10.65Z"/>
      <path class="cls-1" d="M82.49,39.25h1.46l3.58,7.77,3.53-7.77h1.47l-4.88,10.65h-.25l-4.9-10.65Z"/>
      <path class="cls-1" d="M95.08,34.87c.32,0,.58.11.8.34s.33.49.33.8-.11.58-.33.79-.49.34-.8.34-.57-.11-.79-.34c-.22-.22-.33-.49-.33-.79s.11-.58.33-.8c.23-.23.49-.34.79-.34ZM94.41,39.25h1.37v10.65h-1.37v-10.65Z"/>
      <path class="cls-1" d="M108.97,41.47l-1.09.67c-.93-1.25-2.22-1.87-3.85-1.87-1.29,0-2.38.41-3.23,1.25-.86.84-1.28,1.85-1.28,3.04,0,.77.2,1.51.59,2.2s.93,1.22,1.62,1.6,1.46.57,2.31.57c1.56,0,2.85-.62,3.84-1.87l1.09.72c-.51.77-1.2,1.36-2.05,1.78s-1.84.63-2.93.63c-1.68,0-3.08-.53-4.19-1.61-1.11-1.08-1.66-2.37-1.66-3.91,0-1.03.26-1.99.78-2.87s1.23-1.58,2.14-2.08c.9-.5,1.92-.74,3.04-.74.71,0,1.39.11,2.04.33s1.22.5,1.67.84c.45.35.84.79,1.16,1.33Z"/>
      <path class="cls-1" d="M120.57,46.37l1.15.61c-.38.74-.82,1.35-1.32,1.8s-1.05.8-1.67,1.04c-.62.24-1.33.36-2.11.36-1.74,0-3.1-.57-4.08-1.71s-1.47-2.42-1.47-3.86c0-1.35.41-2.55,1.24-3.61,1.05-1.35,2.46-2.02,4.23-2.02s3.27.68,4.35,2.06c.77.98,1.16,2.18,1.17,3.64h-9.59c.02,1.24.42,2.25,1.18,3.04s1.71,1.18,2.84,1.18c.54,0,1.07-.1,1.59-.28.51-.18.95-.43,1.3-.75.37-.32.76-.83,1.17-1.52ZM120.57,43.5c-.18-.73-.45-1.32-.8-1.75-.35-.43-.82-.79-1.39-1.05-.58-.27-1.18-.4-1.81-.4-1.04,0-1.95.34-2.7,1.01-.55.49-.97,1.23-1.25,2.21h7.96Z"/>
      <path class="cls-1" d="M129.99,40.43l-.88.91c-.73-.71-1.45-1.07-2.15-1.07-.45,0-.83.15-1.14.45-.32.29-.48.64-.48,1.03,0,.35.13.67.39.99.26.32.82.7,1.65,1.13,1.02.53,1.72,1.03,2.08,1.53s.54,1.05.54,1.67c0,.87-.3,1.62-.92,2.23s-1.38.91-2.3.91c-.62,0-1.21-.13-1.76-.4s-1.02-.64-1.39-1.11l.86-.98c.7.79,1.45,1.18,2.23,1.18.55,0,1.02-.17,1.4-.53.39-.35.58-.77.58-1.24,0-.39-.13-.74-.38-1.04-.25-.3-.83-.67-1.73-1.14-.97-.5-1.62-.99-1.97-1.47-.35-.48-.52-1.03-.52-1.65,0-.8.27-1.48.83-2.02.55-.53,1.25-.8,2.1-.8,1-.03,1.99.45,2.98,1.41Z"/>
      <path class="cls-1" d="M138.18,35.51h2.87c1.64,0,2.76.08,3.33.22.83.21,1.5.62,2.02,1.25s.78,1.42.78,2.37-.25,1.75-.76,2.37c-.51.62-1.21,1.04-2.11,1.26-.65.15-1.87.24-3.66.24h-1.02v6.69h-1.43v-14.4h-.01ZM139.63,36.92v4.89l2.43.03c.99,0,1.71-.09,2.16-.27.46-.17.82-.47,1.08-.87.26-.4.39-.85.39-1.35s-.13-.92-.39-1.33-.61-.68-1.03-.86-1.13-.25-2.1-.25h-2.54Z"/>
      <path class="cls-1" d="M150.06,35.51h1.43v13.01h5.54v1.39h-6.98v-14.4h0Z"/>
      <path class="cls-1" d="M172.74,38.18l-1.14.87c-.63-.82-1.38-1.43-2.26-1.86s-1.85-.63-2.89-.63c-1.15,0-2.22.27-3.2.83-.98.55-1.74,1.29-2.27,2.23-.54.93-.8,1.98-.8,3.14,0,1.76.6,3.22,1.8,4.4,1.21,1.17,2.73,1.76,4.55,1.76,2.02,0,3.71-.79,5.06-2.37l1.14.86c-.72.91-1.61,1.62-2.68,2.12-1.08.5-2.27.75-3.6.75-2.52,0-4.51-.84-5.97-2.52-1.22-1.41-1.83-3.13-1.83-5.13,0-2.11.74-3.88,2.22-5.33,1.48-1.43,3.33-2.16,5.55-2.16,1.35,0,2.55.26,3.64.79,1.09.54,1.97,1.29,2.66,2.25Z"/>
    </g>
    <line class="cls-2" x1="117.19" y1="8.07" x2="116.77" y2="8.9"/>
    <line class="cls-2" x1="116.74" y1="8.96" x2="116.07" y2="7.6"/>
    <line class="cls-2" x1="125.72" y1="26.85" x2="116.74" y2="8.96"/>
  </g>
  <g>
    <path class="cls-3" d="M172.91,1.46v-.92c-.3,0-.54,0-.83-.01v-.52h2.26v.52c-.32.01-.5.01-.76.01h-.29c.18.07.23.21.23.34v.58c0,.49,0,.97-.02,1.46h-.59c0-.48,0-.96,0-1.45Z"/>
    <path class="cls-3" d="M174.81,1.46c0-.49,0-.97.01-1.46h.77l.79,2.03.02-.02c-.01-.12,0-.25.05-.4L177.12,0h.77c.01.49.01.97.01,1.46s0,.97-.01,1.46h-.61v-1.53c0-.13.02-.26.05-.48l-.02-.02-.79,2.03h-.34l-.79-2.03-.02.02c.03.23.05.36.05.48v1.54h-.61c-.01-.5-.01-.98-.01-1.47Z"/>
  </g>
</svg>